<?xml version="1.0" standalone="no"?>
<!DOCTYPE svg PUBLIC "-//W3C//DTD SVG 1.1//EN" "http://www.w3.org/Graphics/SVG/1.1/DTD/svg11.dtd">
<svg width="186" height="11" version="1.1" xmlns="http://www.w3.org/2000/svg">
 <desc>Zint Generated Symbol</desc>
 <g id="barcode" fill="#000000">
  <path d="M0 0h2v10.75h-2ZM12 0h2v10.75h-2ZM16 0h2v10.75h-2ZM28 0h2v10.75h-2ZM32 0h2v10.75h-2ZM48 0h2v10.75h-2ZM60 0h2v10.75h-2ZM64 0h2v10.75h-2ZM68 0h2v10.75h-2ZM84 0h2v10.75h-2ZM88 0h2v10.75h-2ZM104 0h2v10.75h-2ZM108 0h2v10.75h-2ZM124 0h2v10.75h-2ZM128 0h2v10.75h-2ZM144 0h2v10.75h-2ZM148 0h2v10.75h-2ZM164 0h2v10.75h-2ZM180 0h2v10.75h-2ZM184 0h2v10.75h-2ZM4 6.45h2v4.3h-2ZM8 6.45h2v4.3h-2ZM20 6.45h2v4.3h-2ZM24 6.45h2v4.3h-2ZM36 6.45h2v4.3h-2ZM40 6.45h2v4.3h-2ZM44 6.45h2v4.3h-2ZM52 6.45h2v4.3h-2ZM56 6.45h2v4.3h-2ZM72 6.45h2v4.3h-2ZM76 6.45h2v4.3h-2ZM80 6.45h2v4.3h-2ZM92 6.45h2v4.3h-2ZM96 6.45h2v4.3h-2ZM100 6.45h2v4.3h-2ZM112 6.45h2v4.3h-2ZM116 6.45h2v4.3h-2ZM120 6.45h2v4.3h-2ZM132 6.45h2v4.3h-2ZM136 6.45h2v4.3h-2ZM140 6.45h2v4.3h-2ZM152 6.45h2v4.3h-2ZM156 6.45h2v4.3h-2ZM160 6.45h2v4.3h-2ZM168 6.45h2v4.3h-2ZM172 6.45h2v4.3h-2ZM176 6.45h2v4.3h-2Z"/>
 </g>
</svg>
