<?xml version="1.0" standalone="no"?>
<!DOCTYPE svg PUBLIC "-//W3C//DTD SVG 1.1//EN" "http://www.w3.org/Graphics/SVG/1.1/DTD/svg11.dtd">
<svg width="26" height="26" version="1.1" xmlns="http://www.w3.org/2000/svg">
 <desc>Zint Generated Symbol</desc>
 <g id="barcode" fill="#000000">
  <path d="M0 0h14v2h-14ZM16 0h2v2h-2ZM20 0h2v2h-2ZM24 0h2v6h-2ZM0 2h2v10h-2ZM12 2h2v10h-2ZM18 2h4v4h-4ZM4 4h6v6h-6ZM16 6h10v2h-10ZM18 8h4v4h-4ZM24 10h2v2h-2ZM0 12h14v2h-14ZM16 12h2v2h-2ZM20 12h6v2h-6ZM18 14h4v2h-4ZM0 16h6v2h-6ZM12 16h2v2h-2ZM16 16h6v2h-6ZM24 16h2v4h-2ZM4 18h2v6h-2ZM8 18h2v4h-2ZM12 18h4v2h-4ZM18 18h4v2h-4ZM0 20h2v2h-2ZM12 20h2v2h-2ZM18 20h2v2h-2ZM22 20h2v2h-2ZM8 22h6v4h-6ZM18 22h6v2h-6ZM0 24h2v2h-2ZM20 24h6v2h-6Z"/>
 </g>
</svg>
