<?xml version="1.0" standalone="no"?>
<!DOCTYPE svg PUBLIC "-//W3C//DTD SVG 1.1//EN" "http://www.w3.org/Graphics/SVG/1.1/DTD/svg11.dtd">
<svg width="254" height="117" version="1.1" xmlns="http://www.w3.org/2000/svg">
 <desc>Zint Generated Symbol</desc>
 <g id="barcode" fill="#000000">
  <path d="M0 0h4v100h-4ZM6 0h2v100h-2ZM12 0h4v100h-4ZM18 0h4v100h-4ZM24 0h4v100h-4ZM30 0h2v100h-2ZM36 0h4v100h-4ZM42 0h2v100h-2ZM48 0h4v100h-4ZM54 0h4v100h-4ZM60 0h2v100h-2ZM66 0h2v100h-2ZM72 0h4v100h-4ZM78 0h2v100h-2ZM84 0h2v100h-2ZM90 0h2v100h-2ZM96 0h4v100h-4ZM102 0h2v100h-2ZM108 0h2v100h-2ZM114 0h2v100h-2ZM120 0h2v100h-2ZM126 0h2v100h-2ZM132 0h4v100h-4ZM138 0h2v100h-2ZM144 0h2v100h-2ZM150 0h2v100h-2ZM156 0h4v100h-4ZM162 0h4v100h-4ZM168 0h2v100h-2ZM174 0h2v100h-2ZM180 0h2v100h-2ZM186 0h4v100h-4ZM192 0h2v100h-2ZM198 0h2v100h-2ZM204 0h2v100h-2ZM210 0h4v100h-4ZM216 0h4v100h-4ZM222 0h4v100h-4ZM228 0h2v100h-2ZM234 0h2v100h-2ZM240 0h2v100h-2ZM246 0h2v100h-2ZM252 0h2v100h-2Z"/>
  <text x="127" y="113.34" text-anchor="middle" font-family="Arimo, Arial, sans-serif" font-size="14">
   7591046238
  </text>
 </g>
</svg>
