<?xml version="1.0" standalone="no"?>
<!DOCTYPE svg PUBLIC "-//W3C//DTD SVG 1.1//EN" "http://www.w3.org/Graphics/SVG/1.1/DTD/svg11.dtd">
<svg width="138" height="48" version="1.1" xmlns="http://www.w3.org/2000/svg">
 <desc>Zint Generated Symbol</desc>
 <g id="barcode" fill="#000000">
  <path d="M0 0h16v48h-16ZM18 0h2v48h-2ZM22 0h2v48h-2ZM26 0h2v48h-2ZM34 0h10v6h-10ZM46 0h2v6h-2ZM50 0h2v6h-2ZM54 0h10v6h-10ZM68 0h4v12h-4ZM74 0h2v12h-2ZM78 0h2v6h-2ZM88 0h4v6h-4ZM102 0h6v6h-6ZM110 0h6v6h-6ZM118 0h4v6h-4ZM126 0h4v6h-4ZM136 0h2v48h-2ZM34 6h12v6h-12ZM48 6h2v6h-2ZM52 6h2v6h-2ZM60 6h6v6h-6ZM84 6h6v6h-6ZM96 6h2v6h-2ZM102 6h8v6h-8ZM112 6h2v6h-2ZM120 6h2v6h-2ZM124 6h2v6h-2ZM34 12h6v6h-6ZM42 12h2v6h-2ZM46 12h2v6h-2ZM50 12h12v6h-12ZM68 12h2v6h-2ZM72 12h4v6h-4ZM80 12h4v6h-4ZM86 12h8v6h-8ZM102 12h2v6h-2ZM108 12h10v6h-10ZM122 12h4v6h-4ZM132 12h2v6h-2ZM34 18h4v6h-4ZM40 18h2v6h-2ZM44 18h8v6h-8ZM56 18h10v6h-10ZM68 18h4v6h-4ZM76 18h4v6h-4ZM84 18h2v6h-2ZM98 18h2v6h-2ZM102 18h4v6h-4ZM114 18h4v6h-4ZM124 18h2v6h-2ZM128 18h2v6h-2ZM34 24h6v6h-6ZM42 24h2v6h-2ZM46 24h6v6h-6ZM60 24h4v6h-4ZM68 24h2v6h-2ZM74 24h2v6h-2ZM78 24h8v6h-8ZM90 24h2v6h-2ZM102 24h8v6h-8ZM112 24h2v6h-2ZM116 24h2v6h-2ZM126 24h2v6h-2ZM34 30h8v6h-8ZM44 30h2v6h-2ZM48 30h8v6h-8ZM58 30h2v6h-2ZM68 30h8v6h-8ZM80 30h2v6h-2ZM84 30h10v6h-10ZM96 30h4v6h-4ZM102 30h4v6h-4ZM108 30h2v6h-2ZM114 30h2v6h-2ZM122 30h10v6h-10ZM34 36h6v6h-6ZM42 36h2v6h-2ZM48 36h6v6h-6ZM56 36h10v6h-10ZM68 36h4v6h-4ZM74 36h4v6h-4ZM84 36h2v6h-2ZM98 36h2v6h-2ZM102 36h2v6h-2ZM112 36h2v6h-2ZM122 36h4v6h-4ZM128 36h4v12h-4ZM34 42h10v6h-10ZM46 42h2v6h-2ZM52 42h2v6h-2ZM56 42h4v6h-4ZM68 42h6v6h-6ZM78 42h2v6h-2ZM90 42h4v6h-4ZM96 42h2v6h-2ZM102 42h6v6h-6ZM110 42h2v6h-2ZM120 42h6v6h-6Z"/>
 </g>
</svg>
